<svg xmlns="http://www.w3.org/2000/svg" width="430" height="431" fill="none" viewBox="0 0 430 431"><path fill="url(#WIGsdJN3mia)" d="M104 92a6 6 0 0 1 6-6h105a6 6 0 1 1 0 12H110a6 6 0 0 1-6-6"/><path fill="url(#RSnseqo9Vub)" d="M110 117a6 6 0 1 0 0 12h210a6 6 0 1 0 0-12z"/><path fill="url(#xZHjVyK0T5c)" d="M104 154a6 6 0 0 1 6-6h210a6 6 0 1 1 0 12H110a6 6 0 0 1-6-6"/><path fill="url(#fI3VRzTruyd)" d="M110 179a6 6 0 1 0 0 12h210a6 6 0 1 0 0-12z"/><path fill="url(#r89cLCQHEJe)" fill-rule="evenodd" d="m260.828 49-14.256-13.454c-17.724-16.727-45.42-16.727-63.144 0L169.172 49H75a6 6 0 0 0-6 6v88.537l-17.936 16.928q-.16.138-.31.289A5.98 5.98 0 0 0 49 165.199V375a6 6 0 0 0 6 6h320a6 6 0 0 0 6-6V165.051a6 6 0 0 0-1.933-4.463L361 143.537V55a6 6 0 0 0-6-6zm-22.492-4.727c-13.101-12.364-33.571-12.364-46.672 0L186.656 49h56.688zM349 182.509V61H81v121.515l27.64 27.64A6 6 0 0 1 110 210h210q.7.001 1.354.153zM309.508 222H120.485l36.684 36.684c33.567-27.651 82.09-27.652 115.658-.003zm-161.419 44.574L61 179.485v163.292zM61 358.723l99.774-87.303.042-.036.037-.033 2.125-1.859c29.785-26.062 74.259-26.062 104.044 0l2.124 1.859.081.07L369 358.723V369H61zm308-15.946-87.089-76.203L369 179.485z" clip-rule="evenodd"/><defs><linearGradient id="WIGsdJN3mia" x1="157.603" x2="349.825" y1="102.504" y2="303.297" gradientUnits="userSpaceOnUse"><stop stop-color="#cb5eee"/><stop offset="1" stop-color="#4be1ec"/></linearGradient><linearGradient id="RSnseqo9Vub" x1="157.603" x2="349.825" y1="102.504" y2="303.297" gradientUnits="userSpaceOnUse"><stop stop-color="#cb5eee"/><stop offset="1" stop-color="#4be1ec"/></linearGradient><linearGradient id="xZHjVyK0T5c" x1="157.603" x2="349.825" y1="102.504" y2="303.297" gradientUnits="userSpaceOnUse"><stop stop-color="#cb5eee"/><stop offset="1" stop-color="#4be1ec"/></linearGradient><linearGradient id="fI3VRzTruyd" x1="157.603" x2="349.825" y1="102.504" y2="303.297" gradientUnits="userSpaceOnUse"><stop stop-color="#cb5eee"/><stop offset="1" stop-color="#4be1ec"/></linearGradient><linearGradient id="r89cLCQHEJe" x1="157.603" x2="349.825" y1="102.504" y2="303.297" gradientUnits="userSpaceOnUse"><stop stop-color="#cb5eee"/><stop offset="1" stop-color="#4be1ec"/></linearGradient></defs></svg>